<mxfile host="app.diagrams.net" modified="2023-04-12T10:09:55.570Z" agent="Mozilla/5.0 (Windows NT 10.0; WOW64) AppleWebKit/537.36 (KHTML, like Gecko) Chrome/86.0.4240.198 Safari/537.36" etag="5RYQpe3dUqUMCLGO7FBt" version="21.1.5" type="github">
  <diagram id="C5RBs43oDa-KdzZeNtuy" name="Page-1">
    <mxGraphModel dx="1434" dy="747" grid="1" gridSize="10" guides="1" tooltips="1" connect="1" arrows="1" fold="1" page="1" pageScale="1" pageWidth="827" pageHeight="1169" math="0" shadow="0">
      <root>
        <mxCell id="WIyWlLk6GJQsqaUBKTNV-0" />
        <mxCell id="WIyWlLk6GJQsqaUBKTNV-1" parent="WIyWlLk6GJQsqaUBKTNV-0" />
        <mxCell id="YezV5wfbExkr-e6byGoz-5" value="" style="edgeStyle=orthogonalEdgeStyle;rounded=0;orthogonalLoop=1;jettySize=auto;html=1;" edge="1" parent="WIyWlLk6GJQsqaUBKTNV-1" source="YezV5wfbExkr-e6byGoz-0" target="YezV5wfbExkr-e6byGoz-4">
          <mxGeometry relative="1" as="geometry" />
        </mxCell>
        <mxCell id="YezV5wfbExkr-e6byGoz-11" value="" style="edgeStyle=orthogonalEdgeStyle;rounded=0;orthogonalLoop=1;jettySize=auto;html=1;" edge="1" parent="WIyWlLk6GJQsqaUBKTNV-1" source="YezV5wfbExkr-e6byGoz-0" target="YezV5wfbExkr-e6byGoz-6">
          <mxGeometry relative="1" as="geometry" />
        </mxCell>
        <mxCell id="YezV5wfbExkr-e6byGoz-0" value="NioEventLoopGroup" style="rounded=0;whiteSpace=wrap;html=1;" vertex="1" parent="WIyWlLk6GJQsqaUBKTNV-1">
          <mxGeometry x="340" y="90" width="120" height="60" as="geometry" />
        </mxCell>
        <mxCell id="YezV5wfbExkr-e6byGoz-4" value="Select" style="ellipse;shape=cloud;whiteSpace=wrap;html=1;rounded=0;" vertex="1" parent="WIyWlLk6GJQsqaUBKTNV-1">
          <mxGeometry x="300" y="170" width="200" height="130" as="geometry" />
        </mxCell>
        <mxCell id="YezV5wfbExkr-e6byGoz-10" value="" style="edgeStyle=orthogonalEdgeStyle;rounded=0;orthogonalLoop=1;jettySize=auto;html=1;" edge="1" parent="WIyWlLk6GJQsqaUBKTNV-1" source="YezV5wfbExkr-e6byGoz-6" target="YezV5wfbExkr-e6byGoz-9">
          <mxGeometry relative="1" as="geometry" />
        </mxCell>
        <mxCell id="YezV5wfbExkr-e6byGoz-6" value="MultithreadEventLoopGroup" style="rounded=0;whiteSpace=wrap;html=1;" vertex="1" parent="WIyWlLk6GJQsqaUBKTNV-1">
          <mxGeometry x="570" y="90" width="190" height="60" as="geometry" />
        </mxCell>
        <mxCell id="YezV5wfbExkr-e6byGoz-13" value="" style="edgeStyle=orthogonalEdgeStyle;rounded=0;orthogonalLoop=1;jettySize=auto;html=1;" edge="1" parent="WIyWlLk6GJQsqaUBKTNV-1" source="YezV5wfbExkr-e6byGoz-9" target="YezV5wfbExkr-e6byGoz-12">
          <mxGeometry relative="1" as="geometry" />
        </mxCell>
        <mxCell id="YezV5wfbExkr-e6byGoz-9" value="MultithreadEventExecutorGroup" style="rounded=0;whiteSpace=wrap;html=1;" vertex="1" parent="WIyWlLk6GJQsqaUBKTNV-1">
          <mxGeometry x="840" y="90" width="190" height="60" as="geometry" />
        </mxCell>
        <mxCell id="YezV5wfbExkr-e6byGoz-15" value="" style="edgeStyle=orthogonalEdgeStyle;rounded=0;orthogonalLoop=1;jettySize=auto;html=1;" edge="1" parent="WIyWlLk6GJQsqaUBKTNV-1" source="YezV5wfbExkr-e6byGoz-12" target="YezV5wfbExkr-e6byGoz-14">
          <mxGeometry relative="1" as="geometry" />
        </mxCell>
        <mxCell id="YezV5wfbExkr-e6byGoz-12" value="new ThreadPerTaskExecutor(newDefaultThreadFactory());把其中的Runable放到FastThreadLocalThread中去运行 这个属性就是executor&lt;br&gt;children = new EventExecutor[nThreads]; 其中放入NioEventLoop" style="ellipse;shape=cloud;whiteSpace=wrap;html=1;rounded=0;" vertex="1" parent="WIyWlLk6GJQsqaUBKTNV-1">
          <mxGeometry x="710" y="170" width="450" height="130" as="geometry" />
        </mxCell>
        <mxCell id="YezV5wfbExkr-e6byGoz-14" value="new NioEventLoop()" style="whiteSpace=wrap;html=1;rounded=0;" vertex="1" parent="WIyWlLk6GJQsqaUBKTNV-1">
          <mxGeometry x="1220" y="187.5" width="200" height="95" as="geometry" />
        </mxCell>
      </root>
    </mxGraphModel>
  </diagram>
</mxfile>
